<svg preserveAspectRatio="none" width="100%" height="100%" overflow="visible" style="display: block;" viewBox="0 0 17.9263 19.9805" fill="none" xmlns="http://www.w3.org/2000/svg">
<path id="Subtract" d="M11.7009 18.4805C12.1151 18.4805 12.4509 18.8163 12.4509 19.2305C12.4506 19.6444 12.1149 19.9804 11.7009 19.9805H6.22529C5.81126 19.9804 5.47555 19.6444 5.47529 19.2305C5.47529 18.8163 5.81111 18.4805 6.22529 18.4805H11.7009ZM8.9626 0C13.3195 0 16.6999 3.96118 16.6999 8.64844V8.65723L16.6755 10.8555C16.6774 12.2823 17.181 13.4732 17.7048 14.2861C17.9912 14.7306 17.965 15.2598 17.822 15.6396C17.6853 16.0025 17.3153 16.5146 16.656 16.5146H1.27119C0.6015 16.5146 0.23244 15.9875 0.0993183 15.623C-0.0405651 15.24 -0.063733 14.7019 0.236037 14.2559L0.438185 13.9336C0.904196 13.1425 1.30236 12.0828 1.30244 10.8477V10.8389L1.32686 8.52539C1.33079 3.9052 4.66445 0.000300556 8.9626 0ZM8.9626 1.5C5.65789 1.50031 2.82703 4.56003 2.82686 8.5332V8.54199L2.80244 10.8555C2.8005 12.5887 2.1779 14.0241 1.52901 15.0146H16.3933C15.7712 14.0222 15.1756 12.5833 15.1755 10.8477V10.8389L15.2009 8.64844H15.1999C15.1999 4.61157 12.3236 1.5 8.9626 1.5Z" fill="var(--fill-0, #121212)"/>
</svg>
