<svg preserveAspectRatio="none" width="100%" height="100%" overflow="visible" style="display: block;" viewBox="0 0 14.7947 14.7957" fill="none" xmlns="http://www.w3.org/2000/svg">
<path id="search-shape" d="M6.53809 0.0078125C9.82376 0.174242 12.4365 2.89171 12.4365 6.21875L12.4287 6.53809C12.3617 7.8613 11.8799 9.0745 11.1123 10.0527L14.5752 13.5146C14.8678 13.8076 14.868 14.2834 14.5752 14.5762C14.2824 14.869 13.8066 14.8688 13.5137 14.5762L10.0518 11.1133C8.99546 11.9416 7.66513 12.4364 6.21875 12.4365L5.89844 12.4287C2.71872 12.2676 0.168875 9.71782 0.0078125 6.53809L0 6.21875C0 2.78447 2.78447 0 6.21875 0L6.53809 0.0078125ZM6.21875 1.5C3.6129 1.5 1.5 3.6129 1.5 6.21875C1.50024 8.8244 3.61304 10.9365 6.21875 10.9365C8.82425 10.9363 10.9363 8.82425 10.9365 6.21875C10.9365 3.61304 8.8244 1.50024 6.21875 1.5Z" fill="var(--fill-0, #121212)"/>
</svg>
