<svg preserveAspectRatio="none" width="100%" height="100%" overflow="visible" style="display: block;" viewBox="0 0 19.9176 17.262" fill="none" xmlns="http://www.w3.org/2000/svg">
<path id="Vector" d="M14.3096 0.75C16.64 0.75 18.6085 2.47119 19.0518 4.66309C19.5737 7.24562 18.2558 9.85068 16.3828 11.9463C16.0076 12.3655 15.6083 12.764 15.1865 13.1367L14.7568 13.501C13.6128 14.4328 12.3411 15.2027 11.3467 15.7422C10.8514 16.0108 10.4288 16.2199 10.1318 16.3613C10.0682 16.3916 10.0096 16.4174 9.95801 16.4414C9.90684 16.4176 9.84916 16.3914 9.78613 16.3613C9.48911 16.2198 9.06661 16.0109 8.57129 15.7422C7.57678 15.2026 6.30533 14.4325 5.16113 13.501C4.5788 13.0274 4.03544 12.5053 3.53516 11.9463C1.66151 9.85085 0.343306 7.24503 0.865234 4.66309C1.3078 2.47147 3.27714 0.75 5.6084 0.75C7.12383 0.750137 8.47826 1.38828 9.4082 2.39453L9.95898 2.99023L10.5098 2.39453C11.4398 1.38822 12.794 0.750057 14.3096 0.75Z" stroke="var(--stroke-0, #121212)" stroke-width="1.5"/>
</svg>
