<svg preserveAspectRatio="none" width="100%" height="100%" overflow="visible" style="display: block;" viewBox="0 0 134 22" fill="none" xmlns="http://www.w3.org/2000/svg">
<g id="Logo">
<g id="Vector">
<path d="M40.1034 9.70824C36.6916 8.94792 36.2664 8.214 36.2744 7.28472C36.2849 6.20232 37.4072 5.36544 39.2187 5.36544C40.8137 5.36544 42.1631 5.93568 43.5812 7.04976L45.0784 5.1516C43.7211 4.03224 41.7036 3 39.3032 3C35.873 3 33.697 4.77144 33.6627 7.42992C33.6231 10.3498 35.7911 11.4216 39.121 12.0816C42.451 12.7416 42.6754 13.5547 42.7124 14.4233C42.7652 15.6456 41.4792 16.398 39.7627 16.398C37.8165 16.398 36.1027 15.6324 34.5024 14.2517L32.8599 16.1102C34.6979 17.7602 36.7999 18.8374 39.4564 18.8374C43.2511 18.8374 45.4059 16.9049 45.3346 14.3441C45.2633 11.7833 43.6657 10.5029 40.0954 9.7056L40.1034 9.70824Z" fill="var(--fill-0, #610722)"/>
<path d="M23.2308 3C18.8552 3 15.3087 6.54552 15.3087 10.92C15.3087 15.2945 18.8552 18.84 23.2308 18.84C27.6065 18.84 31.1529 15.2945 31.1529 10.92C31.1529 6.54552 27.6065 3 23.2308 3ZM23.2308 16.4402C20.2891 16.4402 17.9072 13.9692 17.9072 10.92C17.9072 7.8708 20.2917 5.39976 23.2308 5.39976C26.1699 5.39976 28.5545 7.8708 28.5545 10.92C28.5545 13.9692 26.1699 16.4402 23.2308 16.4402Z" fill="var(--fill-0, #610722)"/>
<path d="M7.08417 3.26929H1V18.5707H3.55092V13.4703H6.79898C10.6069 13.4703 13.1604 11.3899 13.1604 8.29849C13.1604 5.20705 10.7785 3.26929 7.08417 3.26929ZM3.55092 5.62417H6.95214C8.04539 5.62417 10.5884 5.89081 10.5884 8.36185C10.5884 10.0488 9.12543 11.1391 6.86499 11.1391H3.55092V5.62417Z" fill="var(--fill-0, #610722)"/>
<path d="M73.1066 10.6217L68.1104 3.26929H65.4749V18.5707H68.0259V7.47217L73.0722 14.7797H73.0934L78.1846 7.42729V18.5707H80.7356V3.26929H78.1001L73.1066 10.6217Z" fill="var(--fill-0, #610722)"/>
<path d="M58.9958 9.69241H51.116V3.26929H48.5624V18.5707H51.116V12.0658H58.9958V18.5707H61.5468V3.26929H58.9958V9.69241Z" fill="var(--fill-0, #610722)"/>
<path d="M114.711 8.00809C114.711 5.17273 112.345 3.26929 108.822 3.26929H101.896V18.5707H104.447V12.9555H108.136L112.519 18.5707H115.693L110.929 12.5093C113.309 11.8757 114.706 10.231 114.706 8.00809H114.711ZM112.134 8.07145C112.134 9.63169 110.774 10.6428 108.669 10.6428H104.449V5.62417H108.69C110.879 5.62417 112.134 6.51649 112.134 8.07145Z" fill="var(--fill-0, #610722)"/>
<path d="M125.679 10.0435L132.624 3.26929H129.207L121.121 11.2315V3.26929H118.567V18.5707H121.121V14.4444L123.883 11.7675L129.529 18.5707H132.769L125.681 10.0409L125.679 10.0435Z" fill="var(--fill-0, #610722)"/>
<path d="M92.4667 3.26929H90.238L82.9946 18.5707H85.6828L87.4758 14.7506H95.1655L96.9374 18.5707H99.7128L92.4667 3.26929ZM88.54 12.4407L91.3286 6.49009L94.1013 12.4407H88.54Z" fill="var(--fill-0, #610722)"/>
</g>
</g>
</svg>
